<svg width="172" height="24" viewBox="0 0 172 24" fill="none" xmlns="http://www.w3.org/2000/svg">
<path d="M0.12 0.216V0.664H3.064V22.552H0.12V23H10.648V22.552H7.704V11.608H16.952V22.552H14.008V23H24.536V22.552H21.592V0.664H24.536V0.216H14.008V0.664H16.952V11.16H7.704V0.664H10.648V0.216H0.12ZM31.8002 0.216V0.664H34.7762V15.608C34.7762 16.568 34.8829 17.5173 35.0962 18.456C35.3096 19.3947 35.7469 20.2373 36.4082 20.984C37.0909 21.7093 38.0616 22.3067 39.3202 22.776C40.5789 23.224 42.2429 23.448 44.3122 23.448C45.5922 23.448 46.6696 23.2987 47.5443 23C48.4189 22.7227 49.1442 22.36 49.7202 21.912C50.2962 21.4427 50.7336 20.92 51.0322 20.344C51.3309 19.768 51.5549 19.192 51.7043 18.616C51.8536 18.04 51.9389 17.496 51.9603 16.984C51.9816 16.4507 51.9923 16.0133 51.9923 15.672V0.664H54.9683V0.216H48.5683V0.664H51.4802V15.704C51.4802 16.024 51.4696 16.4293 51.4482 16.92C51.4269 17.3893 51.3523 17.9013 51.2243 18.456C51.0962 18.9893 50.8936 19.5333 50.6162 20.088C50.3389 20.6213 49.9443 21.112 49.4322 21.56C48.9202 21.9867 48.2696 22.3387 47.4802 22.616C46.7122 22.872 45.7522 23 44.6002 23C43.4269 23 42.4882 22.776 41.7842 22.328C41.1016 21.8587 40.5789 21.2507 40.2162 20.504C39.8749 19.7573 39.6509 18.9147 39.5442 17.976C39.4589 17.016 39.4162 16.0347 39.4162 15.032V0.664H42.3602V0.216H31.8002ZM61.8905 0.216V0.664H64.8345V22.552H61.8905V23H68.2905V22.552H65.3465V0.664H65.4105L73.3145 23H73.8265L81.6985 0.664H81.7625V22.552H78.8505V23H89.3465V22.552H86.4025V0.664H89.3465V0.216H81.3465L75.7145 16.152H75.6505L70.1145 0.216H61.8905ZM104.22 11.704V0.664C104.39 0.642665 104.582 0.621332 104.796 0.599998C105.009 0.578665 105.233 0.567999 105.468 0.567999C107.324 0.567999 108.604 1.05867 109.308 2.04C110.012 3.02133 110.364 4.44 110.364 6.296C110.364 8.25867 109.958 9.656 109.148 10.488C108.337 11.2987 107.025 11.704 105.212 11.704H104.22ZM104.22 22.552V12.152H105.532C107.238 12.152 108.721 11.992 109.98 11.672C111.238 11.352 112.284 10.9253 113.116 10.392C113.948 9.83733 114.566 9.19733 114.972 8.472C115.377 7.72533 115.58 6.936 115.58 6.104C115.58 4.86667 115.26 3.864 114.62 3.096C114.001 2.30667 113.222 1.69867 112.284 1.272C111.345 0.823999 110.321 0.525332 109.212 0.375999C108.102 0.205332 107.068 0.119999 106.108 0.119999C105.02 0.119999 103.932 0.141332 102.844 0.183998C101.756 0.205332 100.668 0.216 99.5795 0.216H96.6355V0.664H99.5795V22.552H96.6355V23H107.164V22.552H104.22ZM122.601 0.216V0.664H125.545V22.552H122.601V23H143.049V15.992H142.633C142.42 16.9093 142.111 17.7733 141.705 18.584C141.3 19.3733 140.788 20.0667 140.169 20.664C139.572 21.2613 138.879 21.7307 138.089 22.072C137.3 22.392 136.415 22.552 135.433 22.552H130.185V11H132.329C133.076 11 133.695 11.128 134.185 11.384C134.697 11.64 135.124 11.992 135.465 12.44C135.807 12.8667 136.073 13.368 136.265 13.944C136.479 14.52 136.66 15.1173 136.809 15.736H137.225V5.784H136.809C136.66 6.50933 136.468 7.17067 136.233 7.768C135.999 8.344 135.7 8.84533 135.337 9.272C134.975 9.67733 134.516 9.99733 133.961 10.232C133.428 10.4453 132.767 10.552 131.977 10.552H130.185V0.664H135.273C136.319 0.664 137.204 0.866666 137.929 1.272C138.655 1.656 139.241 2.11467 139.689 2.648C140.159 3.18133 140.521 3.736 140.777 4.312C141.033 4.86667 141.215 5.32533 141.321 5.688H141.737V0.216H122.601ZM151.103 0.216V0.664H154.047V22.552H151.103V23H171.391V15.768H170.975C170.698 17.0053 170.303 18.0613 169.791 18.936C169.301 19.7893 168.735 20.4933 168.095 21.048C167.477 21.5813 166.805 21.9653 166.079 22.2C165.375 22.4347 164.671 22.552 163.967 22.552H158.687V0.664H161.631V0.216H151.103Z" fill="#513832"/>
</svg>
